<svg width="20" height="20" viewBox="0 0 20 20" fill="none" xmlns="http://www.w3.org/2000/svg">
<path d="M13.975 11.35L8.65 6.02501L13.975 0.700012L19.3 6.02501L13.975 11.35ZM0 9.55001V2.02501H7.525V9.55001H0ZM10.45 20V12.475H17.975V20H10.45ZM0 20V12.475H7.525V20H0ZM1.5 8.05001H6.025V3.52501H1.5V8.05001ZM14.05 9.32501L17.275 6.10001L14.05 2.87501L10.825 6.10001L14.05 9.32501ZM11.95 18.5H16.475V13.975H11.95V18.5ZM1.5 18.5H6.025V13.975H1.5V18.5Z" fill="#806BF6"/>
<path d="M1.5 8.05001H6.025V3.52501H1.5V8.05001Z" fill="#806BF6"/>
<path d="M14.05 9.32501L17.275 6.10001L14.05 2.87501L10.825 6.10001L14.05 9.32501Z" fill="#806BF6"/>
<path d="M11.95 18.5H16.475V13.975H11.95V18.5Z" fill="#806BF6"/>
<path d="M1.5 18.5H6.025V13.975H1.5V18.5Z" fill="#806BF6"/>
</svg>
